<svg xmlns="http://www.w3.org/2000/svg" width="33" height="32" viewBox="0 0 33 32">
    <g fill="none" fill-rule="evenodd">
        <g fill="#FFF">
            <g>
                <g>
                    <g>
                        <path d="M15.988 4C9.366 4 3.998 9.373 3.998 16c0 5.989 4.385 10.954 10.117 11.854v-8.385H11.07V16h3.045v-2.644c0-3.007 1.79-4.669 4.528-4.669 1.313 0 2.685.235 2.685.235v2.953h-1.513c-1.488 0-1.953.925-1.953 1.874V16h3.325l-.531 3.469h-2.794v8.385c5.732-.9 10.118-5.865 10.118-11.854 0-6.627-5.37-12-11.992-12" transform="translate(-594 -304) translate(31.977) translate(490.64 304) translate(71.947)"/>
                    </g>
                </g>
            </g>
        </g>
    </g>
</svg>
