<svg xmlns="http://www.w3.org/2000/svg" width="33" height="32" viewBox="0 0 33 32">
    <g fill="none" fill-rule="evenodd">
        <g fill="#FFF">
            <g>
                <g>
                    <g>
                        <path d="M14.829 4h2.319l2.098.015.67.016.81.032.206.009c1.277.059 2.148.261 2.91.558.789.307 1.457.717 2.125 1.384.666.668 1.076 1.337 1.383 2.126.272.7.464 1.49.54 2.602l.027.517.036.958.02 1.202.006 1.685-.006 3.485-.02 1.205-.036.947-.01.206c-.058 1.278-.26 2.15-.557 2.913-.307.789-.717 1.458-1.383 2.126-.668.667-1.336 1.077-2.124 1.384-.763.297-1.634.499-2.911.558l-1.153.045-1.203.02-1.692.007-3.475-.007-1.2-.02-1.164-.045c-1.277-.059-2.149-.261-2.911-.558-.788-.307-1.457-.717-2.124-1.384-.667-.668-1.077-1.337-1.383-2.126-.297-.763-.499-1.635-.558-2.913l-.041-1.017-.024-1.345-.006-1.425L4 14.063l.012-1.303.019-.786.038-.921c.059-1.278.26-2.15.558-2.913.306-.789.716-1.458 1.383-2.126.667-.667 1.336-1.077 2.124-1.384.699-.272 1.49-.465 2.6-.54l.517-.027.714-.029.786-.02 1.301-.011.777-.002zm4.112 2.173l-.486-.005-4.784-.001-1.455.022-1.073.043c-.752.034-1.282.127-1.678.233l-.244.072-.11.037-.195.072c-.56.217-.959.477-1.379.897-.42.42-.679.819-.896 1.38l-.072.195-.073.227c-.12.408-.23.97-.269 1.806l-.035.845-.027 1.325-.007 2.075.005 3.073.017 1.14.014.452.033.788c.034.752.128 1.283.234 1.679l.072.245.036.109.072.195c.217.561.477.96.896 1.38.42.42.819.68 1.38.897l.195.072.226.073c.407.12.97.231 1.805.269l.787.033.724.02 1.664.015 3.613-.001 1.165-.01.95-.024.788-.033c.751-.034 1.282-.127 1.677-.233l.245-.072.109-.037.195-.072c.56-.217.96-.477 1.38-.897.419-.42.679-.819.895-1.38l.072-.195.073-.227c.109-.367.21-.86.256-1.563l.03-.637.028-.775.018-1.091.006-1.45-.003-3.273-.006-.752-.013-.716-.029-.834-.018-.413c-.034-.752-.127-1.283-.233-1.679l-.072-.245c-.012-.037-.024-.074-.037-.109l-.072-.195c-.216-.561-.476-.96-.896-1.38-.42-.42-.818-.68-1.379-.897l-.195-.072-.227-.073c-.366-.108-.858-.209-1.562-.256l-.636-.03-.845-.03-.654-.012zm-2.953 3.665c3.4 0 6.158 2.759 6.158 6.162s-2.757 6.162-6.158 6.162c-3.4 0-6.157-2.759-6.157-6.162s2.757-6.162 6.157-6.162zm0 2.162c-2.207 0-3.997 1.791-3.997 4s1.79 4 3.997 4c2.208 0 3.997-1.791 3.997-4s-1.79-4-3.997-4zm6.401-3.845c.795 0 1.44.644 1.44 1.44 0 .795-.645 1.439-1.44 1.439-.794 0-1.439-.644-1.439-1.44 0-.795.645-1.44 1.44-1.44z" transform="translate(-666 -304) translate(31.977) translate(490.64 304) translate(143.895)"/>
                    </g>
                </g>
            </g>
        </g>
    </g>
</svg>
