<svg xmlns="http://www.w3.org/2000/svg" width="33" height="32" viewBox="0 0 33 32">
    <g fill="none" fill-rule="evenodd">
        <g fill="#FFF">
            <g>
                <g>
                    <g>
                        <path d="M24.422 24.428H20.82v-5.562c0-1.327-.024-3.033-1.851-3.033-1.854 0-2.138 1.446-2.138 2.938v5.657h-3.473v-11.48h3.344v1.548h.05c.477-.902 1.643-1.858 3.382-1.858 3.618 0 4.288 2.382 4.288 5.48v6.31zM9.382 11.463c-1.136 0-2.057-.924-2.057-2.063 0-1.141.921-2.065 2.058-2.065 1.137 0 2.058.924 2.058 2.065 0 1.139-.921 2.063-2.058 2.063zM7.57 24.428h3.601v-11.48H7.57v11.48zM26.106 4H5.871c-1.035 0-1.873.84-1.873 1.879V26.12c0 1.038.838 1.879 1.873 1.879h20.235c1.035 0 1.874-.841 1.874-1.88V5.88c0-1.038-.84-1.88-1.874-1.88z" transform="translate(-738 -304) translate(31.977) translate(490.64 304) translate(215.842)"/>
                    </g>
                </g>
            </g>
        </g>
    </g>
</svg>
