<svg xmlns="http://www.w3.org/2000/svg" width="33" height="32" viewBox="0 0 33 32">
    <g fill="none" fill-rule="evenodd">
        <g fill="#FFF">
            <g>
                <g>
                    <path d="M13.536 19.568v-7.137l6.267 3.57-6.267 3.567zm13.942-9.383c-.275-1.039-1.088-1.857-2.12-2.136-1.87-.504-9.37-.504-9.37-.504s-7.5 0-9.37.504c-1.031.28-1.845 1.097-2.12 2.136C3.998 12.07 3.998 16 3.998 16s0 3.93.502 5.814c.274 1.04 1.088 1.858 2.12 2.136 1.87.504 9.37.504 9.37.504s7.499 0 9.37-.504c1.03-.278 1.844-1.097 2.119-2.136.501-1.884.501-5.814.501-5.814s0-3.93-.501-5.815z" transform="translate(-522 -304) translate(31.977) translate(490.64 304)"/>
                </g>
            </g>
        </g>
    </g>
</svg>
